<svg xmlns="http://www.w3.org/2000/svg" width="64" height="64" viewBox="0 0 64 64" role="img" aria-label="Sornex Studio">
  <defs>
    <linearGradient id="bg" x1="0" y1="0" x2="1" y2="1">
      <stop offset="0" stop-color="#0f172a"/>
      <stop offset="1" stop-color="#111c33"/>
    </linearGradient>
    <linearGradient id="accent" x1="0" y1="0" x2="1" y2="1">
      <stop offset="0" stop-color="#60a5fa"/>
      <stop offset="1" stop-color="#a78bfa"/>
    </linearGradient>
  </defs>
  <rect width="64" height="64" rx="14" fill="url(#bg)"/>
  <g transform="translate(10 12)">
    <rect x="12" y="2" width="30" height="22" rx="8" fill="none" stroke="rgba(241,245,249,0.35)" stroke-width="2"/>
    <rect x="8" y="10" width="30" height="22" rx="8" fill="none" stroke="rgba(96,165,250,0.70)" stroke-width="2"/>
    <rect x="4" y="18" width="30" height="22" rx="8" fill="none" stroke="url(#accent)" stroke-width="2.6"/>
    <path d="M30.8 17.2c0-2.6-2.1-4.6-5.8-4.6-2.1 0-4 .6-5.6 1.7l1.4 2.3c1.2-.8 2.6-1.2 4.1-1.2 1.9 0 2.7.7 2.7 1.7 0 1.2-1.5 1.5-3.5 1.8-3 .5-6.3 1.3-6.3 5.0 0 3.1 2.6 5.1 6.6 5.1 2.3 0 4.5-.6 6.1-1.8l-1.3-2.3c-1.2.9-2.8 1.3-4.5 1.3-2.2 0-3.5-.7-3.5-1.9 0-1.5 1.6-1.8 3.7-2.2 2.9-.5 5.9-1.4 5.9-4.9Z" fill="#f1f5f9" opacity="0.92"/>
  </g>
</svg>
